<?xml version="1.0" standalone="no"?>
<!DOCTYPE svg PUBLIC "-//W3C//DTD SVG 20010904//EN"
 "http://www.w3.org/TR/2001/REC-SVG-20010904/DTD/svg10.dtd">
<svg version="1.0" xmlns="http://www.w3.org/2000/svg"
 width="200.000000pt" height="200.000000pt" viewBox="0 0 200.000000 200.000000"
 preserveAspectRatio="xMidYMid meet">
<metadata>
Created by potrace 1.11, written by Peter Selinger 2001-2013
</metadata>
<g transform="translate(0.000000,200.000000) scale(0.100000,-0.100000)"
fill="#000000" stroke="none">
<path d="M340 1209 c-71 -10 -102 -43 -130 -141 -12 -40 -29 -98 -38 -128 -9
-30 -29 -68 -44 -83 -30 -31 -35 -47 -15 -47 6 -1 93 -2 192 -3 l180 -2 29 26
c21 19 32 41 41 85 19 91 4 97 -67 29 -50 -47 -101 -77 -160 -93 -43 -12 -45
-10 -20 26 11 15 33 69 51 121 39 115 45 127 84 168 17 18 29 35 26 37 -9 9
-77 12 -129 5z"/>
<path d="M774 1205 c-56 -17 -101 -42 -108 -60 -9 -24 -8 -24 19 -19 37 7 33
-22 -20 -154 -49 -122 -56 -161 -27 -163 113 -8 142 -1 142 34 0 12 21 79 46
149 40 108 51 128 73 136 25 9 71 0 71 -14 0 -4 -18 -48 -39 -98 -21 -50 -46
-115 -54 -143 -15 -49 -15 -54 1 -61 18 -9 111 -8 134 1 8 2 15 19 16 37 1 18
23 86 48 151 41 103 50 119 75 128 22 8 32 6 44 -5 13 -13 12 -21 -6 -67 -65
-165 -70 -181 -64 -209 9 -40 36 -51 113 -44 47 3 71 11 86 25 l20 21 -31 10
c-17 6 -33 20 -36 30 -3 10 13 60 35 112 23 51 43 111 45 134 5 36 2 44 -23
63 -24 19 -37 22 -73 17 -24 -3 -64 -17 -87 -31 -51 -30 -50 -30 -57 -5 -5 21
-44 40 -80 40 -12 0 -51 -14 -87 -31 -60 -28 -73 -33 -68 -26 1 1 -4 12 -10
23 -14 27 -48 34 -98 19z"/>
<path d="M1578 1204 c-83 -19 -162 -63 -146 -79 2 -2 33 5 68 16 76 24 194 28
242 9 18 -8 50 -27 71 -43 42 -32 41 -33 72 25 8 15 15 32 15 38 0 39 -210 61
-322 34z"/>
<path d="M1575 1130 c-43 -9 -73 -27 -91 -55 -27 -41 -7 -73 89 -144 70 -51
73 -76 12 -75 -27 0 -57 11 -90 32 l-50 31 -17 -22 c-21 -26 -23 -66 -5 -72
58 -21 235 -29 294 -13 91 23 120 92 65 154 -15 17 -47 45 -72 64 -58 43 -71
60 -64 82 3 10 2 18 -3 19 -4 0 -15 2 -23 3 -8 2 -28 0 -45 -4z"/>
</g>
</svg>
